<svg xmlns="http://www.w3.org/2000/svg" width="329.64" height="38.383" viewBox="0 0 329.64 38.383">
  <g id="Group_9449" data-name="Group 9449" transform="translate(579 125)">
    <g id="Group_6389" data-name="Group 6389" transform="translate(-579 -125)">
      <path id="Path_6204" data-name="Path 6204" d="M20.6,17.171l.04,2.7v.181h.036a1.049,1.049,0,0,1,.157-.28c1.365-1.465,3.087-2.92,7.18-2.92,3.92,0,6.456,3.328,6.557,5.422l0,14.815v3.752H31.217V36.427l0-12.615c0-2.61-2.292-4.5-5.1-4.5-2.335,0-5.329,2.1-5.428,4.223V37.1l0,.1v3.65h-3.36l0-3.752,0-16.812,0-3.113H20.6ZM65.732,36.282c2.3,2.087,4.37,3.165,7.018,3.165,2.708.02,5.118-1.305,5.118-3.852,0-2.129-1.887-3.374-5.259-4.8-2.858-1.236-4.984-2.1-6.094-3.89a13.963,13.963,0,0,1,.205,2.4c0,6.9-5.006,12.5-11.183,12.5s-11.185-5.6-11.185-12.5a12.987,12.987,0,0,1,4.619-10.116H41.4v17.9l0,.071v3.68H38.04V37.285c0-.064,0-.128,0-.193v-17.9H35.081V16.939h3.007c.389-4.546,3.206-7.117,7.1-7.117a11.914,11.914,0,0,1,4.719.634v3.082c-.012.23-.012.37-.012.37a1.176,1.176,0,0,0-.119-.005,6.6,6.6,0,0,0-5.222-1.954c-2.233,0-3.711,1.812-3.195,4.99H53.947a10.072,10.072,0,0,1,1.59-.125,11.181,11.181,0,0,1,10.132,7.2c-.017-.235-.025-.483-.025-.739,0-4.436,4.3-6.324,8.758-6.314.172,0,.339,0,.5,0a22.241,22.241,0,0,1,5.174.847l1.243,3.046,1.407,3.457,3.787,9.229.444,1.48.493-1.48L92.24,21.692c.883-3.261,4.378-4.671,8.24-4.665a13.789,13.789,0,0,1,5.038.822V21.43c-2.093-1.521-3.593-2.405-5.968-2.405-2.086,0-4.6.925-4.6,3.995-.042,2.309,1.344,2.73,5.41,4.747,3.341,1.451,6.423,3.05,6.442,6.756,0,6.181-6.093,7.25-9.06,7.261a10.529,10.529,0,0,1-6.422-1.776V35.927l.218.182c2.406,2.247,4.535,3.412,7.284,3.412,2.711.018,5.121-1.307,5.121-3.855,0-2.128-1.889-3.371-5.261-4.8-3.221-1.394-5.336-2.318-6.2-4.628-1.314,3.2-7.427,18.085-8.865,21.266h-3.3l.78-1.454.689-1.289.024-.043c.827-1.626,2.029-4.175,3.1-6.619L78.566,22.792c-.043-.094-.146-.329-.359-.811A4.1,4.1,0,0,0,75.9,19.33a7.455,7.455,0,0,0-2.425-.375c-2.089,0-4.758.922-4.758,3.995-.04,2.309,1.507,2.728,5.571,4.745,3.341,1.451,6.422,3.052,6.441,6.755,0,6.183-6.093,7.252-9.057,7.263a11.42,11.42,0,0,1-5.938-1.422Zm15.59-15.43c.043.124.1.254.153.392l1.254,3.065Zm-.218,25.2c.17-.29.407-.735.689-1.289ZM78.566,22.792c.1.213-.134-.321-.134-.321Zm-30.8,6.793c.1,5.619,3.6,10.113,7.817,10.036s7.563-4.691,7.469-10.31-3.6-10.111-7.817-10.036-7.564,4.692-7.469,10.31M9.939,13.678V9.927h3.719V37.092l0,.085v3.667H9.939V13.678ZM110.182,11.1h.67c.36,0,.562.146.562.442s-.228.427-.508.427h-.724Zm-.6,2.743h.6V12.509h.71l.522,1.339h.669l-.616-1.431a.8.8,0,0,0,.576-.817c0-.963-.722-1.072-1.35-1.072H109.58Zm-1.484-1.58a2.676,2.676,0,1,1,2.676,2.677,2.683,2.683,0,0,1-2.676-2.677m2.676,3.145a3.144,3.144,0,1,0-3.146-3.145,3.149,3.149,0,0,0,3.146,3.145" transform="translate(-9.939 -9.124)" fill="#007cc3"/>
    </g>
    <g id="Group_6390" data-name="Group 6390" transform="translate(-464.496 -124.573)">
      <rect id="Rectangle_2960" data-name="Rectangle 2960" width="1.204" height="32.233" transform="translate(0 0)" fill="#3f3f3f"/>
    </g>
    <g id="Group_6391" data-name="Group 6391" transform="translate(-452.191 -110.595)">
      <path id="Path_6205" data-name="Path 6205" d="M165.748,28.852h2.975v7.559h.074c.39-.634.8-1.219,1.195-1.779l4.292-5.78h3.707s-5.749,2.89-5.657,7,6.024,9.437,6.024,9.437h-3.512l-4.657-7.535-1.463,1.755v5.78h-2.975Z" transform="translate(-165.748 -27.974)" fill="#3f3f3f"/>
      <path id="Path_6206" data-name="Path 6206" d="M183.284,38.2c0-1.366-.025-2.511-.1-3.536h2.634l.146,1.78h.073a4.281,4.281,0,0,1,3.78-2.048c2.073,0,4.219,1.341,4.219,5.1v7.048h-3V39.831c0-1.708-.634-3-2.267-3a2.517,2.517,0,0,0-2.341,1.756,3.052,3.052,0,0,0-.122.975v6.974h-3.024Z" transform="translate(-169.677 -29.223)" fill="#3f3f3f"/>
      <path id="Path_6207" data-name="Path 6207" d="M211.789,40.489c0,4.365-3.072,6.317-6.1,6.317a5.743,5.743,0,0,1-5.95-6.121c0-3.9,2.56-6.291,6.145-6.291C209.424,34.393,211.789,36.88,211.789,40.489Zm-8.949.122c0,2.291,1.122,4.024,2.951,4.024,1.707,0,2.9-1.683,2.9-4.072,0-1.854-.829-3.975-2.877-3.975C203.693,36.588,202.84,38.636,202.84,40.611Z" transform="translate(-173.408 -29.223)" fill="#3f3f3f"/>
      <path id="Path_6208" data-name="Path 6208" d="M219.31,34.739l1.243,5.389c.268,1.268.537,2.56.756,3.853h.049c.244-1.294.634-2.61.975-3.829l1.536-5.413h2.439l1.487,5.267c.366,1.391.683,2.682.951,3.976h.049c.2-1.294.463-2.585.78-3.976l1.317-5.267h2.951l-3.732,11.876h-2.78l-1.415-4.828a36.578,36.578,0,0,1-.9-3.805h-.049a31.21,31.21,0,0,1-.9,3.805l-1.512,4.828h-2.8l-3.512-11.876Z" transform="translate(-177.125 -29.301)" fill="#3f3f3f"/>
      <path id="Path_6209" data-name="Path 6209" d="M240.853,27.719h3.024V45.033h-3.024Z" transform="translate(-182.671 -27.719)" fill="#3f3f3f"/>
      <path id="Path_6210" data-name="Path 6210" d="M250.247,41.44c1.371,1.581,1.755,3.073,3.657,3.073a8.9,8.9,0,0,0,3.292-.538l.438,2.073a11.186,11.186,0,0,1-4.145.731c-3.852,0-6.121-2.364-6.121-6,0-3.292,2-6.389,5.8-6.389,3.852,0,5.121,3.17,5.121,5.779a7.48,7.48,0,0,1-.1,1.268Zm5.218-2.1c.025-1.1-.463-2.9-2.463-2.9a2.933,2.933,0,0,0-2.756,2.9Z" transform="translate(-184.139 -29.223)" fill="#3f3f3f"/>
      <path id="Path_6211" data-name="Path 6211" d="M274.718,27.719V41.692c0,1.22.048,2.536.1,3.341h-2.683l-.121-1.878h-.05a4.273,4.273,0,0,1-3.876,2.147c-2.829,0-5.073-2.415-5.073-6.073-.025-3.975,2.463-6.34,5.317-6.34a3.783,3.783,0,0,1,3.34,1.56h.049v-6.73Zm-3,10.388a4.212,4.212,0,0,0-.073-.779,2.627,2.627,0,0,0-2.586-2.122c-1.926,0-3,1.707-3,3.926,0,2.17,1.073,3.755,2.975,3.755a2.647,2.647,0,0,0,2.586-2.121,3.356,3.356,0,0,0,.1-.878Z" transform="translate(-187.664 -27.719)" fill="#3f3f3f"/>
      <path id="Path_6212" data-name="Path 6212" d="M292.311,34.661c-.05.8-.1,1.78-.1,3.413V44.8c0,2.488-.511,4.268-1.755,5.39a6.829,6.829,0,0,1-4.585,1.439,8.4,8.4,0,0,1-4.146-.951l.658-2.267a7.18,7.18,0,0,0,3.464.9c1.95,0,3.413-1.024,3.413-3.585V44.708h-.049a4.009,4.009,0,0,1-3.463,1.755c-2.951,0-5.048-2.438-5.048-5.8,0-3.9,2.536-6.267,5.389-6.267a3.736,3.736,0,0,1,3.438,1.853h.05l.121-1.585Zm-3.1,4.755a2.87,2.87,0,0,0-.1-.8,2.488,2.488,0,0,0-2.437-1.926c-1.684,0-2.926,1.463-2.926,3.877,0,2.023,1.023,3.658,2.9,3.658a2.56,2.56,0,0,0,2.439-1.8,5.093,5.093,0,0,0,.122-1.073Z" transform="translate(-191.65 -29.223)" fill="#3f3f3f"/>
      <path id="Path_6213" data-name="Path 6213" d="M301.02,41.44c.073,2.146,1.755,3.073,3.657,3.073a8.9,8.9,0,0,0,3.292-.538l.438,2.073a11.186,11.186,0,0,1-4.145.731c-3.852,0-6.12-2.364-6.12-6,0-3.292,2-6.389,5.8-6.389,3.852,0,5.12,3.17,5.12,5.779a7.4,7.4,0,0,1-.1,1.268Zm5.219-2.1c.024-1.1-.463-2.9-2.464-2.9a2.933,2.933,0,0,0-2.756,2.9Z" transform="translate(-195.58 -29.223)" fill="#3f3f3f"/>
      <path id="Path_6214" data-name="Path 6214" d="M323.837,28.852V45.288h-3V28.852Z" transform="translate(-200.694 -27.974)" fill="#3f3f3f"/>
      <path id="Path_6215" data-name="Path 6215" d="M328.363,38.2c0-1.366-.025-2.511-.1-3.536H330.9l.146,1.78h.073a4.282,4.282,0,0,1,3.78-2.048c2.073,0,4.22,1.341,4.22,5.1v7.048h-3V39.831c0-1.708-.634-3-2.267-3a2.519,2.519,0,0,0-2.341,1.756,3.074,3.074,0,0,0-.121.975v6.974h-3.024Z" transform="translate(-202.368 -29.223)" fill="#3f3f3f"/>
      <path id="Path_6216" data-name="Path 6216" d="M345.439,43.781a6.7,6.7,0,0,0,3.048.854c1.318,0,1.9-.537,1.9-1.317,0-.8-.489-1.22-1.952-1.732-2.316-.8-3.292-2.072-3.268-3.463,0-2.1,1.732-3.73,4.488-3.73a6.975,6.975,0,0,1,3.145.707l-.586,2.122a5.326,5.326,0,0,0-2.511-.682c-1.073,0-1.658.512-1.658,1.243,0,.756.561,1.122,2.072,1.659,2.147.78,3.146,1.878,3.172,3.633,0,2.146-1.684,3.706-4.829,3.706a7.656,7.656,0,0,1-3.609-.829Z" transform="translate(-206.105 -29.223)" fill="#3f3f3f"/>
      <path id="Path_6217" data-name="Path 6217" d="M361.416,30.363v3.39h2.853V36h-2.853v5.243c0,1.439.39,2.195,1.535,2.195a4.408,4.408,0,0,0,1.171-.147l.048,2.293a6.6,6.6,0,0,1-2.17.292,3.473,3.473,0,0,1-2.585-.975,4.732,4.732,0,0,1-.927-3.317V36h-1.707V33.753h1.707V31.07Z" transform="translate(-208.793 -28.315)" fill="#3f3f3f"/>
      <path id="Path_6218" data-name="Path 6218" d="M371.921,29.983a1.683,1.683,0,1,1-1.683-1.634A1.589,1.589,0,0,1,371.921,29.983Zm-3.2,15.192V33.3h3.025V45.175Z" transform="translate(-211.446 -27.861)" fill="#3f3f3f"/>
      <path id="Path_6219" data-name="Path 6219" d="M379.328,30.363v3.39h2.852V36h-2.852v5.243c0,1.439.389,2.195,1.535,2.195a4.427,4.427,0,0,0,1.171-.147l.048,2.293a6.6,6.6,0,0,1-2.171.292,3.472,3.472,0,0,1-2.584-.975,4.732,4.732,0,0,1-.928-3.317V36h-1.707V33.753H376.4V31.07Z" transform="translate(-212.829 -28.315)" fill="#3f3f3f"/>
      <path id="Path_6220" data-name="Path 6220" d="M397.305,43.054c0,1.414.049,2.585.1,3.56H394.77l-.147-1.8h-.048a4.3,4.3,0,0,1-3.8,2.073c-2.171,0-4.146-1.293-4.146-5.17V34.739h3V41.2c0,1.975.634,3.243,2.219,3.243a2.527,2.527,0,0,0,2.292-1.609,2.748,2.748,0,0,0,.171-.927v-7.17h3Z" transform="translate(-215.518 -29.301)" fill="#3f3f3f"/>
      <path id="Path_6221" data-name="Path 6221" d="M407.091,30.363v3.39h2.852V36h-2.852v5.243c0,1.439.389,2.195,1.536,2.195a4.427,4.427,0,0,0,1.171-.147l.048,2.293a6.6,6.6,0,0,1-2.171.292,3.473,3.473,0,0,1-2.584-.975,4.736,4.736,0,0,1-.927-3.317V36h-1.707V33.753h1.707V31.07Z" transform="translate(-219.085 -28.315)" fill="#3f3f3f"/>
      <path id="Path_6222" data-name="Path 6222" d="M416.352,41.44c.073,2.146,1.755,3.073,3.657,3.073a8.9,8.9,0,0,0,3.292-.538l.439,2.073a11.193,11.193,0,0,1-4.146.731c-3.852,0-6.12-2.364-6.12-6,0-3.292,2-6.389,5.8-6.389,3.852,0,5.12,3.17,5.12,5.779a7.4,7.4,0,0,1-.1,1.268Zm5.219-2.1c.024-1.1-.463-2.9-2.463-2.9a2.933,2.933,0,0,0-2.755,2.9Z" transform="translate(-221.568 -29.223)" fill="#3f3f3f"/>
    </g>
  </g>
</svg>
