<svg xmlns="http://www.w3.org/2000/svg"  viewBox="0 0 50 50" width="30px" height="30px"><path d="M 34.492188 8.9902344 C 31.997187 8.9902344 29.980469 11.000375 29.980469 13.484375 C 29.980469 14.115662 30.111478 14.714342 30.345703 15.259766 C 30.332287 15.266136 30.324359 15.266696 30.310547 15.273438 L 16.521484 22.179688 C 15.717325 21.44237 14.657048 20.980469 13.482422 20.980469 C 10.991422 20.980469 8.9648438 23.007047 8.9648438 25.498047 C 8.9648438 27.989047 10.992422 30.015625 13.482422 30.015625 C 14.649115 30.015625 15.703343 29.559082 16.505859 28.830078 C 16.557081 28.861823 16.590352 28.894284 16.652344 28.925781 L 30.384766 36.720703 C 30.149683 37.268995 30.017578 37.871828 30.017578 38.505859 C 30.017578 41.000859 32.034672 43.029297 34.513672 43.029297 C 36.993672 43.029297 39.011719 41.000859 39.011719 38.505859 C 39.011719 36.010859 36.992672 33.980469 34.513672 33.980469 C 33.018434 33.980469 31.700966 34.725743 30.882812 35.859375 L 17.310547 28.154297 C 17.259866 28.123293 17.224012 28.107137 17.177734 28.080078 C 17.691759 27.34692 17.998047 26.459516 17.998047 25.498047 C 17.998047 24.55397 17.706025 23.678642 17.208984 22.953125 L 30.851562 16.128906 C 31.66853 17.248833 32.981283 17.984375 34.480469 17.984375 C 36.975469 17.984375 39.005859 15.963516 39.005859 13.478516 C 39.005859 10.993516 36.987187 8.9902344 34.492188 8.9902344 z M 34.472656 9.9882812 C 36.374656 9.9882813 37.990234 11.545375 37.990234 13.484375 C 37.990234 15.423375 36.382469 16.982422 34.480469 16.982422 C 32.578469 16.982422 30.996094 15.464391 30.996094 13.525391 C 30.996094 11.586391 32.570656 9.9882812 34.472656 9.9882812 z M 13.482422 21.974609 C 15.425422 21.974609 17.005859 23.555047 17.005859 25.498047 C 17.005859 27.441047 15.425422 29.021484 13.482422 29.021484 C 11.539422 29.021484 9.9589844 27.441047 9.9589844 25.498047 C 9.9589844 23.555047 11.539422 21.974609 13.482422 21.974609 z M 34.494141 34.994141 C 36.425141 34.994141 37.996094 36.565094 37.996094 38.496094 C 37.996094 40.427094 36.425141 41.998047 34.494141 41.998047 C 32.563141 41.998047 30.992188 40.427094 30.992188 38.496094 C 30.992187 36.565094 32.563141 34.994141 34.494141 34.994141 z"/></svg>