<?xml version="1.0" standalone="no"?>
<!DOCTYPE svg PUBLIC "-//W3C//DTD SVG 1.1//EN" "http://www.w3.org/Graphics/SVG/1.1/DTD/svg11.dtd" >
<svg xmlns="http://www.w3.org/2000/svg">
<metadata>Generated by IcoMoon</metadata>
<defs>
<font id="icomoon" horiz-adv-x="1024">
<font-face units-per-em="1024" ascent="960" descent="-64" />
<missing-glyph horiz-adv-x="1024" />
<glyph unicode="&#x20;" horiz-adv-x="512" d="" />
<glyph unicode="&#xe900;" glyph-name="facebook" d="M747.733 576h-150.4v85.333c0 44.032 3.584 71.765 66.688 71.765h79.701v135.68c-38.784 4.011-77.781 5.973-116.821 5.888-115.755 0-200.235-70.699-200.235-200.491v-98.176h-128v-170.667l128 0.043v-384.043h170.667v384.128l130.816 0.043 19.584 170.496z" />
<glyph unicode="&#xe901;" glyph-name="linked-in" d="M136.533 647.253v-516.821h167.424v516.821zM231.253 900.267c-2.493 0.246-5.388 0.387-8.316 0.387-49.485 0-89.6-40.115-89.6-89.6s40.115-89.6 89.6-89.6c2.16 0 4.303 0.076 6.425 0.227l-0.285-0.016h1.067c2.35-0.219 5.082-0.344 7.843-0.344 49.485 0 89.6 40.115 89.6 89.6s-40.115 89.6-89.6 89.6c-2.37 0-4.718-0.092-7.042-0.273l0.308 0.019zM725.76 647.253c-1.785 0.069-3.881 0.108-5.986 0.108-62.044 0-116.121-34.114-144.496-84.609l-0.43-0.833v73.173h-167.424c2.219-48.512 0-516.821 0-516.821h167.424v288.64c-0.080 1.641-0.126 3.565-0.126 5.499 0 13.001 2.059 25.521 5.869 37.252l-0.239-0.852c12.412 36.404 46.060 62.228 85.82 62.805l0.068 0.001c60.587 0 84.821-47.403 84.821-116.864v-276.523h167.424v296.405c0.043 158.72-82.56 232.619-192.725 232.619z" />
<glyph unicode="&#xe902;" glyph-name="twitter" d="M500.053 593.067l1.835-31.915-30.848 3.925c-116.649 16.136-218.25 70.924-293.53 150.794l-0.23 0.246-40.747 42.325-10.496-31.275c-6.796-18.963-10.724-40.841-10.724-63.636 0-49.649 18.634-94.946 49.29-129.279l-0.167 0.19c24.704-27.349 19.115-31.275-23.467-14.976-14.805 5.205-27.776 9.131-29.013 7.168 2.051-32.045 10.032-61.755 22.856-88.718l-0.627 1.464c19.608-35.712 48.502-64.208 83.466-82.795l1.099-0.533 30.251-14.976-35.797-0.64c-34.56 0-35.797-0.64-32.085-14.336 21.551-50.431 62.823-88.917 113.863-106.272l1.337-0.395 38.4-13.653-33.323-20.821c-47.226-29.018-104.105-46.82-165.021-48.418l-0.441-0.009c-2.253 0.104-4.896 0.163-7.551 0.163-15.293 0-30.129-1.958-44.27-5.637l1.219 0.269c34.256-23.363 73.736-42.828 115.863-56.394l3.262-0.908c44.342-14.224 95.351-22.423 148.275-22.423 94.687 0 183.245 26.243 258.796 71.853l-2.25-1.26c91.303 62.095 162.149 148.11 204.284 249.097l1.37 3.703c22.022 57.412 36.996 123.873 41.86 193.124l0.124 2.204c0 29.867 1.835 33.877 36.395 69.675 15.376 15.226 29.552 31.593 42.415 48.991l0.807 1.142c6.187 12.373 5.547 12.373-25.941 1.28-52.437-19.541-59.733-17.067-34.133 12.373 18.275 19.316 32.607 42.569 41.578 68.334l0.406 1.341c0 1.963-9.259-1.28-19.755-7.168-15.264-8.065-33.247-15.576-51.938-21.495l-2.376-0.649-33.323-11.051-30.251 21.333c-15.135 10.963-32.408 20.592-50.783 28.076l-1.655 0.596c-14.8 3.88-31.792 6.107-49.303 6.107-20.936 0-41.127-3.184-60.118-9.094l1.432 0.384c-71.172-27.378-120.763-95.191-120.763-174.587 0-4.521 0.161-9.004 0.477-13.445l-0.034 0.597z" />
<glyph unicode="&#xe903;" glyph-name="bx-menu-alt-right" d="M0 825.263h1019.742v-127.461h-1019.742zM351.771 506.584h667.971v-127.461h-667.971zM0 187.904h1019.742v-127.461h-1019.742z" />
<glyph unicode="&#xe904;" glyph-name="bx-search" d="M437.884 84.232c101.539 0.002 194.957 34.775 268.995 93.062l-0.931-0.706 240.703-240.588 77.291 77.348-240.646 240.703c57.019 73.146 91.421 166.356 91.421 267.602 0 241.55-195.815 437.365-437.365 437.365s-437.365-195.815-437.365-437.365c0-241.55 195.815-437.365 437.365-437.365 0.187 0 0.374 0 0.56 0h-0.029zM437.884 850.5c0.051 0 0.112 0 0.173 0 181.362 0 328.384-147.023 328.384-328.384s-147.023-328.384-328.384-328.384c-181.362 0-328.384 147.023-328.384 328.384v0c0.459 181.082 147.13 327.753 328.167 328.211h0.044z" />
<glyph unicode="&#xe905;" glyph-name="chevron-right-circle" d="M511.978 953.386c-279.086-0.025-505.32-226.275-505.32-505.364 0-279.105 226.259-505.364 505.364-505.364s505.364 226.259 505.364 505.364v0c-0.326 278.989-226.415 505.063-505.379 505.364h-0.029zM511.978 43.678c-223.289 0-404.3 181.011-404.3 404.3s181.011 404.3 404.3 404.3c223.289 0 404.3-181.011 404.3-404.3v0c-0.276-223.178-181.122-404.024-404.273-404.3h-0.026zM375.198 664.966l216.944-216.944-216.944-216.944 71.477-71.477 288.42 288.42-288.42 288.42z" />
<glyph unicode="&#xe906;" glyph-name="chevron-right-circle-white" d="M511.963 960c-282.749 0-511.963-229.214-511.963-511.963s229.214-511.963 511.963-511.963c282.749 0 511.963 229.214 511.963 511.963v0c-0.359 282.605-229.358 511.605-511.929 511.963h-0.034zM511.963 38.393c-226.204 0.021-409.57 183.401-409.57 409.607 0 226.22 183.387 409.607 409.607 409.607 226.207 0 409.586-183.366 409.607-409.568v-0.002c-0.253-226.139-183.506-409.392-409.621-409.644h-0.024zM373.399 667.81l219.81-219.81-219.81-219.81 72.38-72.38 292.19 292.19-292.19 292.19z" />
<glyph unicode="&#xe907;" glyph-name="connect" d="M511.984 885.565c-240.588 0-435.624-195.035-435.624-435.624s195.035-435.624 435.624-435.624v0h217.812v87.125h-217.812c-191.449 2.493-345.988 157.021-348.497 348.229l-0.002 0.239c2.476 191.473 157.028 346.037 348.262 348.528l0.237 0.002c191.484-2.476 346.054-157.046 348.528-348.295l0.002-0.235v-62.282c-0.978-36.328-29.321-65.733-65.11-68.392l-0.233-0.014c-36.022 2.672-64.365 32.078-65.342 68.311l-0.002 0.095v62.282c0 0.010 0 0.022 0 0.034 0 120.294-97.518 217.812-217.812 217.812s-217.812-97.518-217.812-217.812c0-120.294 97.518-217.812 217.812-217.812 60.241 0 114.769 24.455 154.2 63.98l0.004 0.004c29.761-39.081 76.317-64.050 128.705-64.050 0.086 0 0.173 0 0.259 0h-0.013c84.284 0.311 152.489 68.708 152.489 153.036 0 0.877-0.007 1.753-0.022 2.626l0.002-0.131v62.313c-0.090 240.569-195.085 435.565-435.646 435.655h-0.009zM511.984 319.223c-72.177 0-130.687 58.511-130.687 130.687s58.511 130.687 130.687 130.687c72.177 0 130.687-58.511 130.687-130.687v0c0-0.047 0-0.102 0-0.158 0-72.089-58.44-130.529-130.529-130.529-0.056 0-0.111 0-0.167 0h0.009z" />
<glyph unicode="&#xe908;" glyph-name="down-arrow" d="M707.84 593.493l-195.84-195.413-195.84 195.413-60.16-60.16 256-256 256 256z" />
<glyph unicode="&#xe909;" glyph-name="insight" d="M770.877 682.74v-493.617h-512v512h512zM752.494 750.616h-475.234c-37.437-0.124-67.752-30.439-67.877-67.865v-475.246c0.124-37.437 30.439-67.752 67.865-67.877h475.246c37.437 0.124 67.752 30.439 67.877 67.865v475.246c-0.124 37.437-30.439 67.752-67.865 67.877h-0.012zM575.829 291.718h-215.674v61.635h215.674zM668.258 414.964h-308.102v61.635h308.126zM668.258 538.21h-308.102v61.635h308.126z" />
<glyph unicode="&#xe90a;" glyph-name="long-right-arrow" d="M617.472 760.149l-57.301-57.216 185.941-186.24h-656.128v-81.067h656.128l-186.24-186.24 57.6-57.216 284.032 283.947z" />
<glyph unicode="&#xe90b;" glyph-name="slick-arrow" d="M511.966 960l-90.177-90.246 357.131-357.681h-778.92v-128.009h778.851l-357.131-357.681 90.246-90.246 511.966 511.966z" />
<glyph unicode="&#xe90c;" glyph-name="podcasts" d="M589.14 447.986c0-0.078 0-0.17 0-0.262 0-28.193-15.373-52.796-38.193-65.883l-0.37-0.196v-319.315h-77.24v319.315c-23.199 13.395-38.561 38.073-38.563 66.34v0c2.292 40.811 35.945 73.037 77.125 73.037s74.833-32.226 77.116-72.835l0.009-0.202zM511.9 679.362c-0.136 0-0.298 0-0.459 0-127.533 0-230.919-103.386-230.919-230.919 0-67.26 28.756-127.804 74.645-170.007l0.165-0.15 54.869 54.726c-32.154 28.081-52.373 69.131-52.437 114.904v0.011c0 85.198 69.067 154.265 154.265 154.265s154.265-69.067 154.265-154.265v0c-0.072-45.789-20.301-86.839-52.286-114.762l-0.18-0.154 54.754-54.754c46.053 42.353 74.81 102.897 74.81 170.157 0 127.533-103.386 230.919-230.919 230.919-0.161 0-0.323 0-0.484 0h0.025zM511.9 833.613c-0.009 0-0.019 0-0.029 0-212.881 0-385.455-172.574-385.455-385.455 0-109.876 45.974-209.015 119.734-279.229l0.159-0.15 54.754 54.754c-60.125 56.438-97.58 136.418-97.58 225.146 0 170.397 138.134 308.53 308.53 308.53s308.53-138.134 308.53-308.53c0-88.728-37.454-168.708-97.415-224.993l-0.165-0.153 54.754-54.754c73.938 70.367 119.924 169.517 119.924 279.408 0 212.881-172.574 385.455-385.455 385.455-0.061 0-0.122 0-0.183 0h0.010z" />
<glyph unicode="&#xe90e;" glyph-name="request-expert" d="M511.986 857.345c-226.056-0.015-409.304-183.274-409.304-409.332 0-226.068 183.264-409.332 409.332-409.332s409.332 183.264 409.332 409.332v0c-0.094 226.040-183.318 409.254-409.352 409.332h-0.007zM310.181 190.939c17.602 36.846 124.855 72.871 201.805 72.871s184.696-36.080 201.805-72.871c-54.846-43.875-125.227-70.407-201.805-70.407s-146.959 26.533-202.452 70.907l0.647-0.5zM772.318 250.287c-58.527 71.174-200.573 95.373-260.332 95.373s-201.805-24.144-260.332-95.373c-41.891 54.455-67.136 123.608-67.136 198.657 0 180.863 146.619 327.482 327.482 327.482s327.482-146.619 327.482-327.482c0-75.049-25.245-144.202-67.707-199.429l0.571 0.773zM511.986 693.618c-79.13 0-143.278-64.148-143.278-143.278s64.148-143.278 143.278-143.278c79.13 0 143.278 64.148 143.278 143.278v0c0 0.114 0.001 0.249 0.001 0.384 0 78.919-63.976 142.895-142.895 142.895-0.135 0-0.27 0-0.404-0.001h0.021zM511.986 488.939c-33.864 0.062-61.292 27.529-61.292 61.401 0 33.911 27.49 61.401 61.401 61.401s61.401-27.49 61.401-61.401v0c0-0.024 0-0.053 0-0.082 0-33.866-27.453-61.319-61.319-61.319-0.067 0-0.135 0-0.202 0h0.010z" />
<glyph unicode="&#xe90f;" glyph-name="bx-x" d="M896.104 960l-383.771-383.771-383.771 383.771-128.563-127.979 383.771-383.771-383.771-383.771 127.979-127.979 383.771 383.771 383.771-383.771 127.979 127.979-383.771 383.771 383.771 383.771z" />
<glyph unicode="&#xe910;" d="M377.344 431.332c-0.003 0-0.007 0-0.010 0-6.015 0-11.303 3.111-14.342 7.812l-0.041 0.067c-1.676 2.595-2.673 5.766-2.673 9.17 0 6.014 3.111 11.302 7.811 14.341l0.067 0.041 293.831 187.392c2.595 1.676 5.766 2.673 9.17 2.673 6.014 0 11.302-3.111 14.341-7.811l0.041-0.067c1.676-2.595 2.673-5.766 2.673-9.17 0-6.014-3.111-11.302-7.811-14.341l-0.067-0.041-293.803-187.392c-2.596-1.677-5.767-2.674-9.171-2.674-0.006 0-0.011 0-0.017 0h0.001z" />
<glyph unicode="&#xe911;" d="M680.96 209.977c-2.781 0.008-5.404 0.68-7.719 1.865l0.096-0.045-334.706 167.538c-5.641 2.864-9.438 8.622-9.438 15.267 0 2.793 0.671 5.429 1.86 7.756l-0.045-0.096c2.864 5.641 8.622 9.438 15.267 9.438 2.793 0 5.429-0.671 7.756-1.86l-0.096 0.045 334.677-167.566c5.649-2.861 9.454-8.623 9.454-15.275 0-9.426-7.641-17.067-17.067-17.067-0.014 0-0.027 0-0.041 0h0.002z" />
<glyph unicode="&#xe912;" d="M422.969 412.672c0-46.28-37.517-83.797-83.797-83.797s-83.797 37.517-83.797 83.797c0 46.28 37.517 83.797 83.797 83.797s83.797-37.517 83.797-83.797z" />
<glyph unicode="&#xe913;" d="M339.172 462.336c-27.429 0-49.664-22.235-49.664-49.664s22.235-49.664 49.664-49.664c27.429 0 49.664 22.235 49.664 49.664v0c-0.032 27.416-22.248 49.632-49.661 49.664h-0.003zM339.172 496.469c46.28 0 83.797-37.517 83.797-83.797s-37.517-83.797-83.797-83.797c-46.28 0-83.797 37.517-83.797 83.797v0c0 46.28 37.517 83.797 83.797 83.797v0z" />
<glyph unicode="&#xe914;" d="M758.187 641.308c0-46.28-37.517-83.797-83.797-83.797s-83.797 37.517-83.797 83.797c0 46.28 37.517 83.797 83.797 83.797s83.797-37.517 83.797-83.797z" />
<glyph unicode="&#xe915;" d="M674.389 690.972c-27.429 0-49.664-22.235-49.664-49.664s22.235-49.664 49.664-49.664c27.429 0 49.664 22.235 49.664 49.664v0c-0.032 27.416-22.248 49.632-49.661 49.664h-0.003zM674.389 725.106c46.28 0 83.797-37.517 83.797-83.797s-37.517-83.797-83.797-83.797c-46.28 0-83.797 37.517-83.797 83.797v0c0 46.28 37.517 83.797 83.797 83.797v0z" />
<glyph unicode="&#xe916;" d="M758.187 234.809c0-46.28-37.517-83.797-83.797-83.797s-83.797 37.517-83.797 83.797c0 46.28 37.517 83.797 83.797 83.797s83.797-37.517 83.797-83.797z" />
<glyph unicode="&#xe917;" d="M674.389 284.473c-27.429 0-49.664-22.235-49.664-49.664s22.235-49.664 49.664-49.664c27.429 0 49.664 22.235 49.664 49.664v0c-0.032 27.416-22.248 49.632-49.661 49.664h-0.003zM674.389 318.606c46.28 0 83.797-37.517 83.797-83.797s-37.517-83.797-83.797-83.797c-46.28 0-83.797 37.517-83.797 83.797v0c0 46.28 37.517 83.797 83.797 83.797v0z" />
<glyph unicode="&#xe918;" glyph-name="search" d="M431.189 769.28c147.26 0 266.638-119.378 266.638-266.638s-119.378-266.638-266.638-266.638c-147.26 0-266.638 119.378-266.638 266.638v0c0.178 147.189 119.45 266.46 266.621 266.638h0.017zM431.189 270.137c128.409 0 232.505 104.096 232.505 232.505s-104.096 232.505-232.505 232.505c-128.409 0-232.505-104.096-232.505-232.505v0c0.146-128.35 104.155-232.359 232.491-232.505h0.014zM810.667 103.851c-4.711 0.004-8.975 1.917-12.060 5.006v0l-199.111 199.111c-3.092 3.089-5.005 7.358-5.005 12.075s1.913 8.986 5.005 12.075v0c3.089 3.092 7.358 5.005 12.075 5.005s8.986-1.913 12.075-5.005v0l199.111-199.111c3.101-3.091 5.020-7.366 5.020-12.089 0-9.426-7.641-17.067-17.067-17.067-0.015 0-0.030 0-0.044 0h0.002z" />
<glyph unicode="&#xe919;" glyph-name="print" d="M512 934.4c-268.62-0.108-486.338-217.893-486.338-486.528 0-200.214 120.936-372.181 293.743-446.838l3.154-1.213c55.907-24.273 121.025-38.393 189.44-38.393 268.726 0 486.572 217.846 486.572 486.572 0 200.311-121.043 372.351-293.975 446.967l-3.157 1.212c-55.592 24.164-120.346 38.222-188.384 38.222-0.371 0-0.743 0-1.114-0.001h0.058zM512 960c282.77 0 512-229.23 512-512s-229.23-512-512-512c-282.77 0-512 229.23-512 512v0c0 282.77 229.23 512 512 512v0zM643.277 488.064c-14.138 0-25.6 11.462-25.6 25.6v0 127.565h-211.379v-127.565c0-14.138-11.462-25.6-25.6-25.6s-25.6 11.462-25.6 25.6v0 153.165c0 14.138 11.462 25.6 25.6 25.6v0h262.579c14.138 0 25.6-11.462 25.6-25.6v0-153.165c0-14.138-11.462-25.6-25.6-25.6v0zM687.053 291.098h-43.776c-14.138 0-25.6 11.462-25.6 25.6s11.462 25.6 25.6 25.6v0h43.776c10.032 0.015 18.161 8.144 18.176 18.175v109.415c-0.015 10.032-8.144 18.161-18.175 18.176h-350.107c-10.032-0.015-18.161-8.144-18.176-18.175v-109.39c0.015-10.032 8.144-18.161 18.175-18.176h43.751c14.138 0 25.6-11.462 25.6-25.6s-11.462-25.6-25.6-25.6v0h-43.75c-38.298 0.044-69.332 31.078-69.376 69.372v109.393c0.044 38.298 31.078 69.332 69.372 69.376h350.11c38.298-0.044 69.332-31.078 69.376-69.372v-109.418c-0.044-38.298-31.078-69.332-69.372-69.376h-0.004zM384 422.4h256c14.138 0 25.6-11.462 25.6-25.6v0-179.2c0-14.138-11.462-25.6-25.6-25.6v0h-256c-14.138 0-25.6 11.462-25.6 25.6v0 179.2c0 14.138 11.462 25.6 25.6 25.6v0zM614.4 371.2h-204.8v-128h204.8z" />
<glyph unicode="&#xe91a;" glyph-name="Polygon-6" d="M960 448l-896-512v1024z" />
<glyph unicode="&#xe91b;" d="M1003.52 448c0-271.459-220.061-491.52-491.52-491.52s-491.52 220.061-491.52 491.52c0 271.459 220.061 491.52 491.52 491.52s491.52-220.061 491.52-491.52z" />
<glyph unicode="&#xe91c;" d="M1003.52 448c0-271.459-220.061-491.52-491.52-491.52s-491.52 220.061-491.52 491.52c0 271.459 220.061 491.52 491.52 491.52s491.52-220.061 491.52-491.52z" />
<glyph unicode="&#xe91d;" d="M512 960c0.004 0 0.009 0 0.014 0 282.77 0 512-229.23 512-512 0-141.388-57.31-269.391-149.968-362.045v0c-92.656-92.656-220.658-149.964-362.045-149.964-282.775 0-512.010 229.234-512.010 512.010 0 141.388 57.309 269.39 149.964 362.045v0c92.142 92.63 219.697 149.957 360.64 149.957 0.494 0 0.989-0.001 1.483-0.002h-0.077zM512-23.040c260.148 0 471.040 210.892 471.040 471.040s-210.892 471.040-471.040 471.040c-260.148 0-471.040-210.892-471.040-471.040v0c0.303-260.027 211.014-470.737 471.011-471.040h0.029z" />
<glyph unicode="&#xe91e;" d="M734.126 448.328l-327.68-269.025 58.491 268.984-58.491 269.025z" />
<glyph unicode="&#xe91f;" glyph-name="cross" d="M978.928 824.694l-843.675-843.675c-24.894-24.894-65.255-24.894-90.149 0v0c-24.894 24.894-24.894 65.255 0 90.149v0l843.675 843.675c24.894 24.894 65.255 24.894 90.149 0v0c24.894-24.894 24.894-65.255 0-90.149v0zM888.779-18.928l-843.675 843.675c-24.894 24.894-24.894 65.255 0 90.149v0c24.894 24.894 65.255 24.894 90.149 0v0l843.675-843.675c24.894-24.894 24.894-65.255 0-90.149v0c-24.894-24.894-65.255-24.894-90.149 0v0z" />
<glyph unicode="&#xe920;" glyph-name="poll" d="M1015.406 11.849h-1015.406v120.686h1015.406zM231.461 253.074h-120.686v485.449h120.686zM564.626 253.074h-120.686v633.783h120.686zM898.158 253.074h-120.686v308.955h120.686z" />
<glyph unicode="&#xe921;" d="M1024 448c0-282.77-229.23-512-512-512s-512 229.23-512 512c0 282.77 229.23 512 512 512s512-229.23 512-512z" />
<glyph unicode="&#xe922;" d="M512 934.4c-268.62-0.108-486.338-217.893-486.338-486.528 0-200.214 120.936-372.181 293.743-446.838l3.154-1.213c55.907-24.273 121.025-38.393 189.44-38.393 268.726 0 486.572 217.846 486.572 486.572 0 200.311-121.043 372.351-293.975 446.967l-3.157 1.212c-55.59 24.164-120.342 38.222-188.379 38.222-0.373 0-0.746 0-1.119-0.001h0.058zM512 960c282.77 0 512-229.23 512-512s-229.23-512-512-512c-282.77 0-512 229.23-512 512v0c0 282.77 229.23 512 512 512v0z" />
<glyph unicode="&#xe923;" d="M701.158 437.76v-177.229h-354.432v177.229h-50.637v-177.229c0.102-27.92 22.715-50.524 50.628-50.611h354.44c27.911 0.101 50.51 22.7 50.611 50.601v177.239zM549.248 420.787l65.562 65.331 35.686-35.558-126.566-126.746-126.566 126.592 35.686 35.686 65.562-65.331v244.838h50.662z" />
<glyph unicode="&#xe924;" glyph-name="chain" d="M576.538 293.933h-6.242c-60.327 1.557-114.311 27.473-152.712 68.233l-0.102 0.109c-7.71 8.145-12.45 19.169-12.45 31.301 0 25.169 20.404 45.573 45.573 45.573 13.038 0 24.797-5.475 33.104-14.251l0.020-0.021c22.467-23.843 53.966-38.961 89.001-39.863l0.163-0.003h3.645c0.077 0 0.168 0 0.259 0 33.87 0 64.635 13.294 87.362 34.949l210.991 199.512c24.772 23.331 40.198 56.349 40.198 92.969 0 70.476-57.132 127.608-127.608 127.608-33.856 0-64.632-13.184-87.475-34.699l0.064 0.060-147.256-149.078c-8.266-8.363-19.737-13.542-32.417-13.542-25.169 0-45.572 20.403-45.572 45.572 0 12.488 5.023 23.803 13.159 32.034l-0.004-0.004 148.941 150.764c39.112 37.063 92.071 59.854 150.354 59.854 120.825 0 218.773-97.948 218.773-218.773 0-62.542-26.244-118.955-68.32-158.826l-0.099-0.093-211.042-199.56c-38.867-37.036-91.6-59.824-149.655-59.824-0.23 0-0.459 0-0.688 0.001h0.036zM236.921-34.886h-6.242c-60.326 1.562-114.308 27.477-152.713 68.234l-0.102 0.109-0.41 0.456c-36.777 39.039-59.378 91.79-59.378 149.819 0 62.566 26.273 118.996 68.389 158.858l0.101 0.095 211.042 199.56c38.88 37.036 91.625 59.824 149.692 59.824 0.233 0 0.466 0 0.698-0.001h6.206c60.327-1.557 114.311-27.473 152.712-68.233l0.102-0.109c7.635-8.127 12.325-19.098 12.325-31.164 0-25.163-20.399-45.562-45.562-45.562-13.097 0-24.904 5.526-33.215 14.374l-0.022 0.024c-22.442 23.679-53.829 38.687-88.727 39.59l-0.164 0.003h-3.645c-0.077 0-0.168 0-0.259 0-33.87 0-64.635-13.294-87.362-34.949l-210.991-199.512c-24.623-23.308-39.947-56.223-39.947-92.717 0-33.98 13.285-64.856 34.944-87.72l-0.054 0.058 0.364-0.41c22.433-23.625 53.784-38.596 88.636-39.499l0.164-0.003h3.645c0.077 0 0.168 0 0.259 0 33.87 0 64.635 13.294 87.362 34.949l-0.051-0.049 185.345 173.909c8.112 7.567 19.035 12.212 31.043 12.212 25.163 0 45.562-20.399 45.562-45.562 0-13.016-5.458-24.758-14.211-33.060l-0.020-0.019-185.208-173.772c-38.855-36.981-91.55-59.733-149.56-59.733-0.263 0-0.526 0-0.789 0.001h0.040z" />
<glyph unicode="&#xe925;" d="M512 934.4c-268.62-0.108-486.338-217.893-486.338-486.528 0-200.214 120.936-372.181 293.743-446.838l3.154-1.213c55.907-24.273 121.025-38.393 189.44-38.393 268.726 0 486.572 217.846 486.572 486.572 0 200.311-121.043 372.351-293.975 446.967l-3.157 1.212c-55.59 24.164-120.342 38.222-188.379 38.222-0.373 0-0.746 0-1.119-0.001h0.058zM512 960c282.77 0 512-229.23 512-512s-229.23-512-512-512c-282.77 0-512 229.23-512 512v0c0 282.77 229.23 512 512 512v0z" />
<glyph unicode="&#xe926;" d="M640 678.4h-256c-28.167-0.145-50.944-23.012-50.944-51.199 0 0 0 0 0-0.001v0l-0.256-409.6 179.2 76.8 179.2-76.8v409.6c-0.087 28.242-22.958 51.113-51.192 51.2h-0.008zM640 294.4l-128 55.808-128-55.808v332.8h256z" />
<glyph unicode="&#xe927;" glyph-name="right-angle" horiz-adv-x="605" d="M23.096-64c-12.751 0.006-23.086 10.344-23.086 23.096 0 7.111 3.214 13.472 8.268 17.709l0.036 0.029 538.607 448.069-539.438 494.863c-4.608 4.237-7.485 10.293-7.485 17.022 0 12.757 10.341 23.098 23.098 23.098 6.028 0 11.517-2.309 15.63-6.091l-0.017 0.015 558.932-512.739c4.612-4.237 7.493-10.296 7.493-17.028 0-7.12-3.222-13.488-8.288-17.725l-0.036-0.030-558.932-465.068c-3.949-3.25-9.057-5.22-14.625-5.22-0.055 0-0.11 0-0.165 0.001h0.008z" />
<glyph unicode="&#xe928;" glyph-name="check-mark" horiz-adv-x="1437" d="M456.932-19.914l-412.835 412.835c-24.338 24.338-24.338 63.799 0 88.137v0c24.338 24.338 63.799 24.338 88.137 0v0l412.835-412.835c24.338-24.338 24.338-63.799 0-88.137v0c-24.338-24.338-63.799-24.338-88.137 0v0zM456.944-19.88c-24.338 24.338-24.338 63.799 0 88.137v0l847.646 847.646c24.338 24.338 63.799 24.338 88.137 0v0c24.338-24.338 24.338-63.799 0-88.137v0l-847.646-847.646c-24.338-24.338-63.799-24.338-88.137 0v0z" />
<glyph unicode="&#xe929;" glyph-name="popup-cross" d="M1023.842 912.599l-976.634-976.634-47.18 47.18 976.634 976.634zM1023.842-16.666l-47.18-47.18-976.634 976.634 47.18 47.18z" />
<glyph unicode="&#xe92a;" glyph-name="hamberger" horiz-adv-x="1528" d="M594.152-64h339.31v170.679h-339.31zM0 960v-170.679h1527.842v170.679zM254.615 362.66h1018.612v170.679h-1018.612z" />
<glyph unicode="&#xe92b;" glyph-name="sound-wave" d="M42.667 405.333h-42.667v42.667h42.667v-42.667zM981.333 448h-42.667v-42.667h42.667v42.667zM128 490.667h-42.667v-128h42.667v128zM896 490.667h-42.667v-128h42.667v128zM298.667 490.667h-42.667v-128h42.667v128zM725.333 533.333h-42.667v-213.333h42.667v213.333zM213.333 533.333h-42.667v-213.333h42.667v213.333zM810.667 576h-42.667v-298.667h42.667v298.667zM384 576h-42.667v-298.667h42.667v298.667zM469.333 661.333h-42.667v-426.667h42.667v426.667zM640 661.333h-42.667v-426.667h42.667v426.667zM554.667 746.667h-42.667v-597.333h42.667v597.333z" />
<glyph unicode="&#xe92c;" glyph-name="sound-cloud" d="M512 874.667c235.264 0 426.667-191.403 426.667-426.667s-191.403-426.667-426.667-426.667-426.667 191.403-426.667 426.667 191.403 426.667 426.667 426.667zM512 960c-282.752 0-512-229.248-512-512s229.248-512 512-512 512 229.248 512 512-229.248 512-512 512zM396.416 320h-23.083v187.733c7.125 5.376 14.805 9.984 23.083 13.184v-200.917zM465.749 320h23.168v214.656c-5.333-6.187-10.24-12.757-14.379-19.968l-8.789 4.309v-198.997zM419.584 320h23.083v205.909c-11.691 1.835-14.379 1.152-23.083 0.213v-206.123zM327.083 320h23.168v163.371c-7.253-10.667-12.885-22.571-16-35.669l-7.168 4.224v-131.925zM257.749 442.155c-14.037-12.715-23.083-31.488-23.083-52.736 0-21.291 9.045-40.021 23.083-52.821v105.557zM694.101 457.771c-4.693 66.048-55.552 118.229-118.272 118.229-23.637 0-45.397-7.637-63.829-20.437v-235.563h210.091c37.12 0 67.243 32.427 67.243 72.32 0 51.968-50.091 87.723-95.232 65.451zM304 458.453c-6.955 0.597-12.16 0.725-23.083-2.816v-132.395c10.283-3.328 14.72-3.243 23.083-3.243v138.453z" />
<glyph unicode="&#xe92d;" glyph-name="sound" d="M128 576v-256h-42.667v256h42.667zM682.667 874.667l-384-213.333v-97.621l298.667 165.931v-563.285l-298.667 165.931v-97.621l384-213.333v853.333zM213.333 661.333h-213.333v-426.667h213.333v426.667zM768.341 572.032c31.659-31.701 51.2-75.52 51.115-123.861s-19.712-92.075-51.413-123.733l52.011-52.181c45.099 44.928 73.045 107.136 73.173 175.829 0.085 68.736-27.648 130.901-72.619 176l-52.267-52.053zM859.733 663.125c54.955-55.125 88.832-131.115 88.704-215.083s-34.304-160-89.429-214.997l53.333-53.504c68.779 68.608 111.488 163.584 111.616 268.416 0.213 104.832-42.069 199.723-110.72 268.501l-53.504-53.333z" />
<glyph unicode="&#xe92e;" glyph-name="audio-minus" d="M832 320c-105.941 0-192-85.973-192-192s86.059-192 192-192 192 85.973 192 192-86.059 192-192 192zM938.667 106.667h-213.333v42.667h213.333v-42.667zM768 816.256l-384-209.493v97.237l469.333 256v-555.733l-21.333 1.067c-22.101 0-43.435-2.859-64-7.765v418.688zM556.331 97.963l-172.331 94.037v97.195l178.432-97.323c-4.949-20.523-7.765-41.856-7.765-63.872 0-10.155 0.64-20.139 1.664-30.037zM0 192h298.667v512h-298.667v-512zM85.333 618.667h128v-341.333h-128v341.333z" />
<glyph unicode="&#xe92f;" glyph-name="spotify" d="M512.008 960c-282.769 0-512.008-229.231-512.008-512 0-282.777 229.238-512 512.008-512 282.8 0 512.015 229.215 512.015 512 0 282.754-229.215 511.977-512.023 511.977l0.008 0.031zM746.814 221.542c-9.17-15.038-28.854-19.815-43.9-10.576-120.21 73.43-271.549 90.058-449.775 49.338-17.173-3.909-34.292 6.851-38.209 24.031-3.932 17.181 6.789 34.3 24.008 38.209 195.038 44.56 362.336 25.375 497.3-57.102 15.045-9.232 19.815-28.854 10.576-43.9zM809.485 360.953c-11.559-18.778-36.135-24.707-54.906-13.156-137.629 84.597-347.413 109.097-510.203 59.675-21.113-6.375-43.408 5.522-49.814 26.597-6.359 21.113 5.545 43.362 26.62 49.783 185.945 56.419 417.111 29.093 575.162-68.031 18.77-11.559 24.699-36.135 13.148-54.883v0.008zM814.868 506.124c-165.024 98.015-437.279 107.023-594.831 59.207-25.299-7.673-52.056 6.605-59.721 31.911-7.665 25.314 6.605 52.049 31.919 59.737 180.861 54.906 481.517 44.299 671.51-68.492 22.802-13.509 30.268-42.894 16.75-65.62-13.456-22.756-42.925-30.26-65.604-16.743h-0.023z" />
<glyph unicode="&#xe930;" glyph-name="audio-plus" d="M832 320c-105.941 0-192-85.973-192-192s86.059-192 192-192 192 85.973 192 192-86.059 192-192 192zM938.667 106.667h-85.333v-85.333h-42.667v85.333h-85.333v42.667h85.333v85.333h42.667v-85.333h85.333v-42.667zM768 816.256l-384-209.493v97.237l469.333 256v-555.733l-21.333 1.067c-22.059 0-43.435-2.859-64-7.765v418.688zM556.373 97.963l-172.373 94.037v97.195l178.389-97.323c-4.864-20.523-7.723-41.856-7.723-63.872 0-10.155 0.64-20.139 1.707-30.037zM0 192h298.667v512h-298.667v-512zM85.333 618.667h128v-341.333h-128v341.333z" />
<glyph unicode="&#xe931;" glyph-name="podcast" horiz-adv-x="1043" d="M585.253 366.417v-430.408h-127.13v430.408c-41.76 22.603-70.128 66.8-70.128 117.637 0 73.822 59.863 133.685 133.693 133.685 73.822 0 133.693-59.863 133.693-133.685 0-50.837-28.369-95.033-70.128-117.637v0zM333.872 865.196c24.76 12.21 34.907 42.193 22.697 66.927-12.21 24.743-42.167 34.907-66.91 22.705-101.045-49.843-179.63-132.301-229.287-229.397-36.682-71.708-57.596-151.499-60.117-232.021-2.539-81.201 13.475-163.226 50.718-238.72 45.861-93.004 123.614-175.725 238.084-234.288 24.531-12.541 54.59-2.802 67.123 21.729 12.541 24.531 2.811 54.581-21.72 67.114-93.717 47.933-156.968 114.843-193.879 189.642-29.77 60.381-42.575 126.153-40.537 191.382 2.063 65.866 19.156 131.12 49.164 189.76 40.18 78.552 103.49 145.139 184.666 185.167v0zM753.718 954.837c-24.743 12.21-54.709 2.038-66.919-22.705s-2.055-54.726 22.705-66.927c81.184-40.036 144.494-106.615 184.657-185.175 29.999-58.631 47.1-123.886 49.155-189.76 2.038-65.229-10.767-131.002-40.528-191.382-36.911-74.799-100.162-141.709-193.879-189.642-24.531-12.541-34.253-42.592-21.72-67.114 12.533-24.531 42.592-34.262 67.123-21.729 114.461 58.555 192.223 141.284 238.084 234.288 37.242 75.495 53.257 157.52 50.718 238.72-2.522 80.522-23.436 160.313-60.109 232.021-49.665 97.096-128.242 179.554-229.287 229.406v0zM702.992 734.942c-18.638 13.425-44.63 9.187-58.054-9.451-13.416-18.638-9.187-44.63 9.451-58.054 7.515-5.409 14.885-11.48 22.111-18.12 42.21-38.915 67.241-90.804 72.498-145.708 5.315-55.396-9.434-114.096-46.854-166.019-6.351-8.822-13.671-17.764-21.95-26.747-15.581-16.914-14.503-43.288 2.437-58.861 16.931-15.573 43.296-14.477 58.869 2.437 10.020 10.86 19.411 22.425 28.148 34.576 49.775 69.11 69.339 147.746 62.172 222.443-7.201 75.172-41.36 146.116-98.905 199.177-9.052 8.347-19.029 16.464-29.923 24.327v0zM388.98 667.412c18.638 13.425 22.875 39.416 9.451 58.054s-39.416 22.875-58.054 9.459c-10.903-7.863-20.871-15.98-29.923-24.319-57.553-53.070-91.713-124.005-98.914-199.177-7.167-74.688 12.397-153.35 62.181-222.46 8.754-12.142 18.137-23.699 28.148-34.559 15.573-16.914 41.938-18.010 58.861-2.437 16.948 15.573 18.027 41.938 2.445 58.861-8.279 8.992-15.598 17.925-21.95 26.747-37.412 51.923-52.17 110.614-46.854 166.011 5.256 54.895 30.288 106.793 72.498 145.708 7.234 6.632 14.605 12.703 22.111 18.112v0z" />
<glyph unicode="&#xe932;" glyph-name="apple" d="M791.651 415.968c-1.285 129.64 105.734 191.851 110.515 194.931-60.152 87.989-153.867 100.083-187.259 101.443-79.749 8.051-155.587-46.979-196.104-46.979-40.405 0-102.843 45.771-168.966 44.56-86.912-1.285-167.040-50.55-211.845-128.392-90.296-156.662-23.096-388.859 64.914-515.893 42.992-62.211 94.262-132.096 161.595-129.6 64.819 2.55 89.349 41.99 167.757 41.99 78.389 0 100.405-41.992 169.024-40.65 69.77 1.285 113.971 63.421 156.68 125.84 49.419 72.192 69.677 142 70.906 145.59-1.55 0.699-136.046 52.214-137.406 207.102l0.189 0.056zM662.768 796.515c35.717 43.333 59.85 103.485 53.254 163.523-51.459-2.098-113.861-34.299-150.805-77.576-33.166-38.419-62.138-99.648-54.389-158.458 57.469-4.48 116.146 29.197 151.882 72.435l0.058 0.075z" />
<glyph unicode="&#xe933;" glyph-name="backword-music" d="M938.667 448c0-235.264-191.403-426.667-426.667-426.667s-426.667 191.403-426.667 426.667 191.403 426.667 426.667 426.667 426.667-191.403 426.667-426.667zM0 448c0-282.752 229.248-512 512-512s512 229.248 512 512-229.248 512-512 512-512-229.248-512-512zM554.667 448l213.333 170.667v-341.333l-213.333 170.667zM341.333 448l213.333 170.667v-341.333l-213.333 170.667zM256 277.333h85.333v341.333h-85.333v-341.333z" />
<glyph unicode="&#xe934;" glyph-name="download-music" d="M512 64l-341.333 384h256v512h170.667v-512h256l-341.333-384zM896 106.667v-85.333h-768v85.333h-85.333v-170.667h938.667v170.667h-85.333z" />
<glyph unicode="&#xe935;" glyph-name="forword-music" d="M512 874.667c235.264 0 426.667-191.403 426.667-426.667s-191.403-426.667-426.667-426.667-426.667 191.403-426.667 426.667 191.403 426.667 426.667 426.667zM512 960c-282.752 0-512-229.248-512-512s229.248-512 512-512 512 229.248 512 512-229.248 512-512 512zM256 277.333v341.333l213.333-170.667-213.333-170.667zM469.333 277.333v341.333l213.333-170.667-213.333-170.667zM768 618.667h-85.333v-341.333h85.333v341.333z" />
<glyph unicode="&#xe936;" glyph-name="home-icon" d="M853.333 657.365v217.301h-128v-89.301l128-128zM1024 405.333l-512 512-512-512h128v-426.667h298.667v213.333h170.667v-213.333h298.667v426.667h128zM810.667 64h-128v213.333h-341.333v-213.333h-128v437.76l298.667 294.912 298.667-298.24v-434.432z" />
<glyph unicode="&#xe937;" horiz-adv-x="1126" d="M310.274 457.208c0 47.108 11.605 87.386 34.815 120.835s54.954 58.703 95.233 75.772c36.859 15.703 82.262 26.959 136.198 33.798 18.425 2.044 48.464 4.776 90.108 8.195v17.408c0 43.688-4.776 73.040-14.337 88.064-14.337 20.488-36.859 30.718-67.586 30.718h-8.186c-22.532-2.044-41.993-9.213-58.373-21.496-16.381-12.293-26.968-29.352-31.744-51.205-2.732-13.649-9.552-21.496-20.478-23.549l-117.764 14.337c-11.605 2.732-17.408 8.873-17.408 18.434 0 2.044 0.339 4.437 1.018 7.159 11.605 60.757 40.104 105.811 85.507 135.172 45.393 29.343 98.478 45.733 159.243 49.152h25.603c77.807 0 138.573-20.139 182.279-60.418 6.838-6.857 13.182-14.208 18.938-22.009 5.784-7.847 10.404-14.85 13.805-20.992 3.419-6.142 6.499-15.024 9.222-26.62 2.741-11.614 4.776-19.635 6.16-24.063 1.357-4.437 2.383-13.998 3.062-28.683 0.678-14.676 1.018-23.375 1.018-26.107v-247.812c0-17.747 2.558-33.963 7.682-48.638 5.124-14.685 10.083-25.263 14.841-31.744 4.776-6.481 12.641-16.903 23.558-31.222 4.098-6.16 6.142-11.623 6.142-16.399 0-5.463-2.723-10.221-8.204-14.328-56.65-49.161-87.368-75.79-92.153-79.888-8.186-6.142-18.086-6.82-29.7-2.044-9.543 8.204-17.903 16.042-25.080 23.558-7.159 7.498-12.283 12.962-15.363 16.381-3.062 3.401-8.021 10.065-14.841 19.965s-11.623 16.564-14.337 19.965c-38.225-41.644-75.772-67.586-112.631-77.825-23.219-6.82-51.893-10.239-86.020-10.239-52.571 0-95.746 16.225-129.534 48.648-33.798 32.432-50.692 78.338-50.692 137.72v0zM486.402 477.695c0-26.629 6.664-47.96 19.965-64.002 13.319-16.042 31.231-24.063 53.763-24.063 2.053 0 4.95 0.339 8.708 1.018 3.74 0.697 6.307 1.036 7.682 1.036 28.664 7.498 50.848 25.923 66.55 55.284 7.517 12.971 13.145 27.133 16.903 42.497 3.758 15.354 5.803 27.821 6.142 37.382 0.339 9.552 0.523 25.254 0.523 47.098v25.603c-39.6 0-69.63-2.732-90.108-8.195-60.097-17.059-90.127-54.945-90.127-113.658v0z" />
<glyph unicode="&#xe938;" horiz-adv-x="1126" d="M916.475 147.961c1.375 2.741 3.419 5.463 6.16 8.204 17.059 11.605 33.44 19.443 49.143 23.54 25.942 6.82 51.205 10.578 75.772 11.266 6.838 0.697 13.319 0.339 19.461-1.018 30.727-2.723 49.143-7.856 55.303-15.363 2.723-4.098 4.079-10.239 4.079-18.425v-7.178c0-23.879-6.481-52.048-19.443-84.471-12.98-32.423-31.066-58.548-54.285-78.348-3.401-2.723-6.481-4.079-9.203-4.079-1.375 0-2.741 0.339-4.098 1.018-4.098 2.044-5.124 5.803-3.080 11.266 25.263 59.391 37.886 100.687 37.886 123.915 0 7.498-1.357 12.962-4.079 16.381-6.838 8.186-25.942 12.283-57.347 12.283-11.623 0-25.263-0.678-40.966-2.044-17.059-2.063-32.762-4.098-47.108-6.16-4.098 0-6.82 0.697-8.204 2.063-1.357 1.357-1.705 2.723-1.018 4.098 0 0.669 0.339 1.696 1.027 3.053v0zM2.044 165.359c3.419 5.463 8.873 5.803 16.39 1.036 170.665-98.991 356.354-148.491 557.050-148.491 133.815 0 265.907 24.924 396.294 74.763 3.401 1.357 8.36 3.401 14.841 6.142 6.499 2.723 11.101 4.776 13.823 6.142 10.239 4.098 18.26 2.044 24.063-6.142 5.821-8.204 3.942-15.703-5.619-22.523-12.302-8.883-28.004-19.122-47.108-30.727-58.703-34.824-124.254-61.783-196.616-80.905-72.353-19.122-143.018-28.664-211.961-28.664-106.498 0-207.194 18.599-302.079 55.807-94.893 37.208-179.887 89.613-254.98 157.181-4.098 3.419-6.142 6.838-6.142 10.248 0 2.053 0.678 4.098 2.044 6.133v0z" />
<glyph unicode="&#xe939;" glyph-name="google" d="M535.253 523.136v-163.029h232.32c-30.379-98.773-112.939-169.472-232.32-169.472-142.165 0-257.408 115.243-257.408 257.365s115.243 257.365 257.408 257.365c63.915 0 122.283-23.424 167.296-61.995l120.064 120.064c-75.819 69.077-176.683 111.232-287.36 111.232-235.691 0-426.752-191.019-426.752-426.667s191.061-426.667 426.752-426.667c358.229 0 437.291 334.933 402.176 501.248l-402.176 0.555z" />
<glyph unicode="&#xe93a;" glyph-name="music" d="M981.333 960l-682.496-152.96v-556.373c-127.104 25.131-256.171-71.296-256.171-177.237 0-91.179 71.296-137.429 148.693-137.429 91.947 0 192.512 65.195 192.64 197.888v465.067l512 104.917v-367.957c-126.933 25.045-256-70.997-256-176.683 0-91.435 73.173-137.899 150.229-137.899 91.307 0 190.976 65.109 191.104 197.803v740.864z" />
<glyph unicode="&#xe93b;" d="M930.368 531.563h-34.368v1.771h-384v-170.667h241.131c-35.179-99.349-129.707-170.667-241.131-170.667-141.376 0-256 114.624-256 256s114.624 256 256 256c65.259 0 124.629-24.619 169.835-64.832l120.683 120.683c-76.203 71.019-178.133 114.816-290.517 114.816-235.627 0-426.667-191.040-426.667-426.667s191.040-426.667 426.667-426.667c235.627 0 426.667 191.040 426.667 426.667 0 28.608-2.944 56.533-8.299 83.563z" />
<glyph unicode="&#xe93c;" d="M134.528 646.592l140.181-102.805c37.931 93.909 129.792 160.213 237.291 160.213 65.259 0 124.629-24.619 169.835-64.832l120.683 120.683c-76.203 71.019-178.133 114.816-290.517 114.816-163.883 0-306.005-92.523-377.472-228.075z" />
<glyph unicode="&#xe93d;" d="M512 21.333c110.208 0 210.347 42.176 286.059 110.763l-132.053 111.744c-42.837-32.448-96.085-51.84-154.005-51.84-110.976 0-205.205 70.763-240.704 169.515l-139.136-107.2c70.613-138.176 214.016-232.981 379.84-232.981z" />
<glyph unicode="&#xe93e;" d="M930.368 531.563h-34.368v1.771h-384v-170.667h241.131c-16.896-47.723-47.595-88.875-87.189-118.848 0.021 0.021 0.043 0.021 0.064 0.043l132.053-111.744c-9.344-8.491 140.608 102.549 140.608 315.883 0 28.608-2.944 56.533-8.299 83.563z" />
<glyph unicode="&#xe93f;" glyph-name="mute" d="M128 576v-256h-42.667v256h42.667zM682.667 874.667l-384-213.333v-97.621l298.667 165.931v-563.285l-298.667 165.931v-97.621l384-213.333v853.333zM213.333 661.333h-213.333v-426.667h213.333v426.667zM952.491 448.299l70.229 70.784-56.491 56.491-70.443-71.253-71.040 70.315-56.149-56.235 71.253-70.699-70.4-71.211 56.235-56.192 70.741 71.339 71.083-70.528 56.491 56.533-71.509 70.656z" />
<glyph unicode="&#xe940;" glyph-name="negative" d="M0 533.333h1024v-170.667h-1024z" />
<glyph unicode="&#xe941;" glyph-name="pause-music" d="M512 874.667c235.264 0 426.667-191.403 426.667-426.667s-191.403-426.667-426.667-426.667-426.667 191.403-426.667 426.667 191.403 426.667 426.667 426.667zM512 960c-282.752 0-512-229.248-512-512s229.248-512 512-512 512 229.248 512 512-229.248 512-512 512zM469.333 234.667h-128v426.667h128v-426.667zM682.667 661.333h-128v-426.667h128v426.667z" />
<glyph unicode="&#xe942;" glyph-name="pin" d="M469.333 234.667h85.333v-213.333l-85.333-85.333v298.667zM768 320h-512c0 133.461 3.883 202.411 79.957 310.443 23.509 33.408 39.040 55.467 39.040 101.248 0 101.205-76.331 72.32-76.331 228.309h426.667c0-154.283-76.331-128.213-76.331-228.267 0-45.781 15.531-67.84 39.040-101.291 76.16-108.16 79.957-177.237 79.957-310.443zM342.699 405.333h338.603c-12.715 186.709-117.589 176.725-117.589 326.357-0.043 68.48 22.229 100.309 54.229 142.976h-211.883c32-42.667 54.272-74.453 54.272-142.933 0-148.779-104.96-140.373-117.632-326.4z" />
<glyph unicode="&#xe943;" glyph-name="play-music" d="M512 874.667c235.264 0 426.667-191.403 426.667-426.667s-191.403-426.667-426.667-426.667-426.667 191.403-426.667 426.667 191.403 426.667 426.667 426.667zM512 960c-282.752 0-512-229.248-512-512s229.248-512 512-512 512 229.248 512 512-229.248 512-512 512zM384 234.667v426.667l384-219.563-384-207.104z" />
<glyph unicode="&#xe944;" glyph-name="positive" d="M1024 533.333h-426.667v426.667h-170.667v-426.667h-426.667v-170.667h426.667v-426.667h170.667v426.667h426.667z" />
<glyph unicode="&#xe945;" d="M522.667 704v0c-29.461 0-53.333 23.872-53.333 53.333v64c0 29.461 23.872 53.333 53.333 53.333v0c29.461 0 53.333-23.872 53.333-53.333v-64c0-29.461-23.872-53.333-53.333-53.333z" />
<glyph unicode="&#xe946;" d="M522.667 256v0c-29.461 0-53.333 23.872-53.333 53.333v277.333c0 29.461 23.872 53.333 53.333 53.333v0c29.461 0 53.333-23.872 53.333-53.333v-277.333c0-29.461-23.872-53.333-53.333-53.333z" />
<glyph unicode="&#xe947;" d="M522.667 21.333v0c-29.461 0-53.333 23.872-53.333 53.333v64c0 29.461 23.872 53.333 53.333 53.333v0c29.461 0 53.333-23.872 53.333-53.333v-64c0-29.461-23.872-53.333-53.333-53.333z" />
<glyph unicode="&#xe948;" d="M330.667 192v0c-29.461 0-53.333 23.872-53.333 53.333v64c0 29.461 23.872 53.333 53.333 53.333v0c29.461 0 53.333-23.872 53.333-53.333v-64c0-29.461-23.872-53.333-53.333-53.333z" />
<glyph unicode="&#xe949;" d="M714.667 533.333v0c-29.461 0-53.333 23.872-53.333 53.333v64c0 29.461 23.872 53.333 53.333 53.333v0c29.461 0 53.333-23.872 53.333-53.333v-64c0-29.461-23.872-53.333-53.333-53.333z" />
<glyph unicode="&#xe94a;" d="M330.667 426.667v0c-29.461 0-53.333 23.872-53.333 53.333v192c0 29.461 23.872 53.333 53.333 53.333v0c29.461 0 53.333-23.872 53.333-53.333v-192c0-29.461-23.872-53.333-53.333-53.333z" />
<glyph unicode="&#xe94b;" d="M714.667 170.667v0c-29.461 0-53.333 23.872-53.333 53.333v192c0 29.461 23.872 53.333 53.333 53.333v0c29.461 0 53.333-23.872 53.333-53.333v-192c0-29.461-23.872-53.333-53.333-53.333z" />
<glyph unicode="&#xe94c;" d="M138.667 362.667v0c-29.461 0-53.333 23.872-53.333 53.333v64c0 29.461 23.872 53.333 53.333 53.333v0c29.461 0 53.333-23.872 53.333-53.333v-64c0-29.461-23.872-53.333-53.333-53.333z" />
<glyph unicode="&#xe94d;" d="M906.667 362.667v0c-29.461 0-53.333 23.872-53.333 53.333v64c0 29.461 23.872 53.333 53.333 53.333v0c29.461 0 53.333-23.872 53.333-53.333v-64c0-29.461-23.872-53.333-53.333-53.333z" />
<glyph unicode="&#xe94e;" glyph-name="amazon-music" d="M286.72 878.080c-112.872 0-204.8-91.928-204.8-204.8v-450.56c0-112.872 91.928-204.8 204.8-204.8h450.56c112.872 0 204.8 91.928 204.8 204.8v450.56c0 112.872-91.928 204.8-204.8 204.8h-450.56zM286.72 837.12h450.56c90.74 0 163.84-73.1 163.84-163.84v-450.56c0-90.74-73.1-163.84-163.84-163.84h-450.56c-90.74 0-163.84 73.1-163.84 163.84v450.56c0 90.74 73.1 163.84 163.84 163.84zM696.32 591.16c-11.311 0-20.48-9.169-20.48-20.48s9.169-20.48 20.48-20.48v0c11.311 0 20.48 9.169 20.48 20.48s-9.169 20.48-20.48 20.48v0zM189.44 529.72v-143.36h30.72v105.28c10.090 2.444 20.218 4.779 30.24 7.44 10.24 2.785 19.98-4.796 20.84-13.52l0.16-99.2h30.72l0.040 51.2 0.12 25.6-0.12 12.8-0.080 6.48c-0.173 2.986-0.538 5.947-1.24 8.88 10.507 2.538 21.046 4.99 31.48 7.76 10.24 2.806 19.98-4.816 20.84-13.52l0.16-99.2h30.72l0.040 51.2 0.12 25.6-0.12 12.8-0.080 6.48c-0.184 3.174-0.521 6.327-1.32 9.44-3.011 12.472-11.505 23.183-22.4 29.040-10.793 6.001-24.523 6.771-35.48 2.88-11.59-3.951-23.093-8.226-34.6-12.48-3.446 3.825-7.369 7.196-11.84 9.6-10.793 6.001-24.523 6.771-35.48 2.88-7.611-2.595-15.148-5.46-22.72-8.2v14.12h-30.72zM445.44 529.72l-30.68-0.040 0.040-49.56c-0.184-16.855-0.353-32.298 0.2-50.32 0.881-12.575 7.708-24.029 16.76-31.32 9.114-7.393 20.3-11.283 31.4-12 10.691-0.881 23.237 2.371 31.040 7.040 0.826 0.427 1.619 0.922 2.44 1.36v-4.8h30.72v139.6h-30.72v-109.64c-4.332-1.502-8.702-2.93-12.96-4.6-7.209-3.052-11.853-3.576-18.12-2.88-11.756 1.434-20.717 10.792-20 18.8 0.184 14.991 0.247 32.621-0.040 48.8l-0.080 49.56zM680.96 529.72v-143.36h30.72v143.36h-30.72zM803.32 529.64c-7.27-0.407-14.544-2.063-21.2-4.92-27.034-11.837-40.334-39.679-39.72-64.48 0.205-11.633 2.040-23.818 7.16-35.84 5.325-11.653 14.738-23.284 27.64-29.96 12.698-6.861 27.058-8.803 39.96-7.84 7.782 0.758 15.352 2.106 22.52 4.4v20.96c-18.227-2.867-36.251-2.863-47.72 4.96-12.902 8.008-19.045 25.166-18.84 43.68-0.41 16.794 7.794 32.82 21.72 40.48 13.107 7.066 30.094 4.197 44.84-5.92v25.2c-4.71 2.847-9.63 5.12-15.16 6.84-6.656 2.007-13.93 2.847-21.2 2.44zM608.36 529.4c-5.413-0.486-10.812-1.536-16.080-3.2-18.084-5.693-31.018-17.888-32.8-30.36-3.318-23.327 13.763-36.992 22.16-40.76 8.397-4.547 15.957-6.533 22.92-8.52 14.131-3.379 23.104-7.202 26.36-12.24 1.782-2.765 2.52-4.874 2.52-8.56s-0.829-6.984-4.72-9.36c-7.987-4.362-21.707-5.953-34.2-4.56-12.493 1.188-28.453 6.735-41.56 12.080v-22c12.083-7.516 24.968-11.504 38.28-13.88 15.77-2.171 31.973-3.566 50.2 4.36 8.806 3.564 19.48 11.532 19.48 33.2 0 22.61-16.408 32.547-24.6 36.52-8.192 4.157-15.757 6.149-22.72 8.32-6.758 2.191-24.6 5.1-24.6 20.48 0 6.41 6.76 9.983 11.88 11.56 17.203 5.734 37.482 1.324 54.48-7.4v25.36c-14.285 6.851-30.76 10.418-47 8.96zM811.080 324.92c-22.753 0-49.773-5.744-69.68-20.080-5.693-4.301-5.707-10.040 1.4-10.040 22.753 2.867 73.967 10.062 83.92-2.84 8.54-11.469-9.94-60.262-18.48-83.2-2.847-7.168 2.867-8.581 8.56-4.28 38.4 32.993 48.367 100.398 41.24 109-4.26 7.148-24.207 11.44-46.96 11.44zM183.56 309.32c-1.142-0.223-2.212-0.827-3-1.8-1.782-2.191-1.431-5.458 0.76-7.24 42.189-34.161 89.936-60.205 140.44-80.48 50.667-19.62 104.39-33.074 159.44-36.76 55.071-3.789 110.414 1.382 163.56 14.96 53.187 13.763 103.857 34.926 149.2 67.080 3.953 2.785 5.489 8.093 3.4 12.64-2.376 5.14-8.46 7.355-13.6 5l-0.8-0.36c-46.387-21.361-96.828-36.358-146.84-46.68-50.217-10.445-101.667-14.422-152.56-12.64-51.016 2.068-101.692 12.228-151.52 26.4-49.439 15.155-98.7 34.236-144.76 59.16l-0.32 0.2c-1.055 0.573-2.258 0.743-3.4 0.52z" />
<glyph unicode="&#xe94f;" glyph-name="email" d="M0 832v-768h1024v768h-1024zM918.101 746.667l-406.101-329.088-406.101 329.088h812.203zM85.333 149.333v504.192l426.667-345.771 426.667 345.771v-504.192h-853.333z" />
</font>
</defs>
</svg>
